<svg xmlns="http://www.w3.org/2000/svg" version="1.1" xmlns:xlink="http://www.w3.org/1999/xlink" xmlns:svgjs="http://svgjs.dev/svgjs" width="1000" height="1000"><svg width="1000" height="1000" viewBox="0 0 1000 1000" fill="none" xmlns="http://www.w3.org/2000/svg">
<path d="M124 1000V0H510.356C583.291 0 643.905 11.3932 692.2 34.1797C740.823 56.6406 777.126 87.4024 801.109 126.465C825.42 165.527 837.576 209.798 837.576 259.277C837.576 299.967 829.691 334.798 813.921 363.77C798.152 392.415 776.961 415.69 750.35 433.594C723.739 451.497 694.007 464.355 661.153 472.168V481.934C696.963 483.887 731.295 494.792 764.149 514.648C797.33 534.18 824.435 561.849 845.461 597.656C866.487 633.464 877 676.758 877 727.539C877 779.297 864.351 825.846 839.054 867.188C813.757 908.203 775.647 940.592 724.724 964.355C673.802 988.119 609.738 1000 532.532 1000H124ZM306.829 848.633H503.457C569.821 848.633 617.622 836.1 646.862 811.035C676.43 785.645 691.214 753.092 691.214 713.379C691.214 683.757 683.822 657.064 669.038 633.301C654.254 609.212 633.228 590.332 605.959 576.66C578.691 562.663 546.166 555.664 508.385 555.664H306.829V848.633ZM306.829 425.293H487.687C519.226 425.293 547.645 419.596 572.942 408.203C598.239 396.484 618.115 380.046 632.571 358.887C647.355 337.402 654.747 312.012 654.747 282.715C654.747 243.978 640.948 212.077 613.351 187.012C586.083 161.947 545.509 149.414 491.63 149.414H306.829V425.293Z" fill="#6941C6"></path>
</svg><style>@media (prefers-color-scheme: light) { :root { filter: none; } }
@media (prefers-color-scheme: dark) { :root { filter: none; } }
</style></svg>